<?xml version="1.0" standalone="no"?>
<!DOCTYPE svg PUBLIC "-//W3C//DTD SVG 1.1//EN" "http://www.w3.org/Graphics/SVG/1.1/DTD/svg11.dtd" >
<svg xmlns="http://www.w3.org/2000/svg">
<metadata>Generated by IcoMoon</metadata>
<defs>
<font id="icomoon" horiz-adv-x="1024">
<font-face units-per-em="1024" ascent="960" descent="-64" />
<missing-glyph horiz-adv-x="1024" />
<glyph unicode="&#x20;" horiz-adv-x="512" d="" />
<glyph unicode="&#xe606;" glyph-name="trash" d="M723.729 33.28h-414.925l-73.489 624.64h561.903l-73.489-624.64zM802.099 676.318l-567.569 101.103 10.991 65.946 567.569-101.103z" />
<glyph unicode="&#xe609;" glyph-name="deletefilter" horiz-adv-x="1022" d="M289.25 576.855l62.594 62.594 356.206-356.206-62.594-62.594-356.206 356.206zM295.572 286.064l347.099 347.099 59.105-59.105-347.099-347.099-59.105 59.105z" />
<glyph unicode="&#xe60a;" glyph-name="link" horiz-adv-x="1022" d="M694.101 726.988l-415.413 4.634 9.328-410.78-70.048 14.022-4.574 462.052h466.746l13.961-69.928zM763.908 190.134l-527.225 527.466 56.026 56.087 527.285-527.466-56.087-56.087z" />
<glyph unicode="&#xe60c;" glyph-name="unselected" horiz-adv-x="1022" d="M782.864 175.812h60.179v-60.179h-60.179v60.179zM722.144 116.536h-60.179v60.179h60.179v-60.179zM601.787 116.536h-60.179v60.179h60.179v-60.179zM481.429 116.536h-60.179v60.179h60.179v-60.179zM361.072 116.536h-60.179v60.179h60.179v-60.179zM181.078 175.812h60.179v-60.179h-60.179v60.179zM240.715 236.893h-60.179v60.179h60.179v-60.179zM240.715 357.251h-60.179v60.179h60.179v-60.179zM240.715 477.608h-60.179v60.179h60.179v-60.179zM240.715 597.965h-60.179v60.179h60.179v-60.179zM181.078 777.598h60.179v-60.179h-60.179v60.179zM722.144 718.323h-60.179v60.179h60.179v-60.179zM601.787 718.323h-60.179v60.179h60.179v-60.179zM481.429 718.323h-60.179v60.179h60.179v-60.179zM361.072 718.323h-60.179v60.179h60.179v-60.179zM782.864 777.598h60.179v-60.179h-60.179v60.179zM842.501 236.893h-60.179v60.179h60.179v-60.179zM842.501 357.251h-60.179v60.179h60.179v-60.179zM842.501 477.608h-60.179v60.179h60.179v-60.179zM842.501 597.965h-60.179v60.179h60.179v-60.179z" />
<glyph unicode="&#xe60d;" glyph-name="addpoint" d="M1006.933 664.986c0 119.433-97.143 216.576-216.576 216.576-101.308 0-186.334-70.042-209.852-164.147v0l-300.1 46.524-223.369-369.835 399.804-369.835 442.47 297.097-33.587 140.902h-0.034c82.33 30.652 141.244 109.841 141.244 202.718zM575.863 693.18c-0.102-0.717-0.239-1.434-0.341-2.15 0.102 0.717 0.239 1.434 0.341 2.15zM828.109 451.959c0.512 0.068 1.058 0.137 1.57 0.239-0.512-0.102-1.058-0.137-1.57-0.239zM790.357 482.577c-100.591 0-182.409 81.818-182.409 182.409s81.818 182.443 182.409 182.443c100.591 0 182.443-81.818 182.443-182.443 0-100.591-81.852-182.409-182.443-182.409zM909.892 685.466h-98.987v98.987h-40.96v-98.987h-98.987v-40.96h98.987v-98.987h40.96v98.987h98.987z" />
<glyph unicode="&#xe60e;" glyph-name="plus" horiz-adv-x="1022" d="M511.519-32.948c-265.448 0-481.429 215.981-481.429 481.429s215.981 481.429 481.429 481.429 481.429-215.981 481.429-481.429-215.981-481.429-481.429-481.429zM511.519 869.732c-232.29 0-421.251-189.021-421.251-421.251s188.961-421.251 421.251-421.251c232.229 0 421.251 189.021 421.251 421.251s-189.021 421.251-421.251 421.251zM480.888 779.464h60.179v-661.965h-60.179v661.965zM179.994 478.571h661.965v-60.179h-661.965v60.179z" />
<glyph unicode="&#xe60f;" glyph-name="deletepoint" d="M1006.933 664.986c0 119.433-97.143 216.576-216.576 216.576-101.308 0-186.334-70.042-209.852-164.147v0l-300.1 46.524-223.369-369.835 399.804-369.835 442.47 297.097-33.587 140.902h-0.034c82.33 30.652 141.244 109.841 141.244 202.718zM575.863 693.18c-0.102-0.717-0.239-1.434-0.341-2.15 0.102 0.717 0.239 1.434 0.341 2.15zM828.109 451.959c0.512 0.068 1.058 0.137 1.57 0.239-0.512-0.102-1.058-0.137-1.57-0.239zM790.357 482.577c-100.591 0-182.409 81.818-182.409 182.409s81.818 182.443 182.409 182.443c100.591 0 182.443-81.818 182.443-182.443 0-100.591-81.852-182.409-182.443-182.409zM670.959 685.466h238.933v-40.96h-238.933v40.96z" />
<glyph unicode="&#xe610;" glyph-name="fullscreen" horiz-adv-x="1022" d="M902.68 813.826c0 14.262-11.554 25.817-25.817 25.817h-730.689c-14.262 0-25.817-11.554-25.817-25.817v-730.749c0-14.202 11.554-25.756 25.817-25.756h730.749c14.202 0 25.756 11.554 25.756 25.817v730.689zM300.893 422.665v236.442h236.382l-236.382-236.442zM722.144 237.856h-236.382l236.382 236.442v-236.442z" />
<glyph unicode="&#xe614;" glyph-name="selected" horiz-adv-x="1022" d="M300.352 659.107h421.251v-421.251h-421.251v421.251z" />
<glyph unicode="&#xe615;" glyph-name="colsize" d="M806.819-64h-24.979v1024h24.979v-1024zM930.909-64h-26.438v1024h26.438v-1024zM619.21 606.255l85.675-75.342-85.675-75.404v150.745zM527.577 455.509l-85.675 75.404 85.675 75.342v-150.745z" />
<glyph unicode="&#xe616;" glyph-name="save" d="M317.235 767.659h158.071v-131.925h-158.071v131.925zM746.803 797.355h-73.387v-205.073h-396.254v205.073h-95.676v-704.887h671.778v595.763z" />
<glyph unicode="&#xe61a;" glyph-name="polygon" d="M490.701 75.435l-390.963 361.711 221.252 366.353 514.97-79.838 85.538-358.946-430.797-289.28z" />
<glyph unicode="&#xe61b;" glyph-name="iconsinvertiert-24" d="M743.151 110.524h-553.199v567.603l146.193 104.141h543.983v-466.091l-136.977-205.653zM234.257 154.863h472.439v472.405h-472.439v-472.405z" />
<glyph unicode="&#xe61e;" glyph-name="linestring" d="M342.63 738.236c0-53.425-43.309-96.734-96.734-96.734s-96.734 43.309-96.734 96.734c0 53.425 43.309 96.734 96.734 96.734s96.734-43.309 96.734-96.734zM874.837 544.7c0-53.487-43.418-96.666-96.734-96.666-53.385 0-96.734 43.179-96.734 96.666 0 53.419 43.383 96.734 96.734 96.734 53.316 0 96.734-43.315 96.734-96.734zM439.467 157.662c0-53.487-43.383-96.666-96.802-96.666-53.35 0-96.7 43.179-96.7 96.666 0 53.419 43.349 96.734 96.7 96.734 53.419 0.034 96.802-43.281 96.802-96.734zM357.444 141.141l-29.491 33.143 407.586 362.291-497.22 180.838 15.155 41.677 567.159-206.234z" />
<glyph unicode="&#xe621;" glyph-name="movepoint" d="M679.424 448c0-92.466-74.958-167.424-167.424-167.424s-167.424 74.958-167.424 167.424c0 92.466 74.958 167.424 167.424 167.424s167.424-74.958 167.424-167.424zM601.873 751.65h-178.62l89.293 138.411zM815.65 356.454v178.62l138.411-89.293zM208.35 535.074v-178.62l-138.411 89.327zM422.707 144.35h178.586l-89.293-138.411z" />
<glyph unicode="&#xe623;" glyph-name="extrudedpolygon" d="M709.666 164.557h-464.213v476.297l122.675 87.415h456.465v-391.1l-114.927-172.612zM282.624 201.762h396.425v396.39h-396.425v-396.39z" />
<glyph unicode="&#xe625;" glyph-name="edit" d="M605.389 689.698l-397.79-397.824-30.276-195.959 191.386 34.85 397.824 397.79zM846.69 608.713l-53.323-53.308-161.107 161.153 53.323 53.308 161.107-161.153z" />
<glyph unicode="&#xe800;" glyph-name="maximieren" d="M512 448l-448.256 332.928v-665.856z" />
<glyph unicode="&#xe802;" glyph-name="dropdown" horiz-adv-x="1022" d="M898.527 562.279l-212.972-248.417-201.117 248.417z" />
<glyph unicode="&#xe803;" glyph-name="close" horiz-adv-x="1022" d="M229.081 637.024l62.594 62.594 476.544-476.544-62.594-62.594-476.544 476.544zM235.403 225.895l467.437 467.437 59.105-59.105-467.437-467.437-59.105 59.105z" />
<glyph unicode="&#xe804;" glyph-name="abort" d="M186.505 444.621l346.795-314.402v262.997h290.577v102.741h-290.577v262.997z" />
<glyph unicode="&#xe805;" glyph-name="camera" horiz-adv-x="1022" d="M915.498 674.573l-232.891-126.255v127.097h-538.9v-483.596h538.9v131.611l232.891-126.255v477.397zM622.428 416.226v-164.228h-418.543v363.238h418.543v-159.714l232.891 117.95v-275.197l-232.891 117.95z" />
<glyph unicode="&#xe806;" glyph-name="detail" horiz-adv-x="1022" d="M248.297 416.647c0-47.56-38.555-86.116-86.116-86.116s-86.116 38.555-86.116 86.116c0 47.56 38.555 86.116 86.116 86.116s86.116-38.555 86.116-86.116zM480.587 416.647c0-47.527-38.528-86.055-86.055-86.055s-86.055 38.528-86.055 86.055c0 47.527 38.528 86.055 86.055 86.055s86.055-38.528 86.055-86.055zM712.997 416.647c0-47.527-38.528-86.055-86.055-86.055s-86.055 38.528-86.055 86.055c0 47.527 38.528 86.055 86.055 86.055s86.055-38.528 86.055-86.055z" />
<glyph unicode="&#xe80a;" glyph-name="colsort" d="M733.606 441.434l-213.173-248.651-201.306 248.651zM319.127 599.492l213.173 248.651 201.306-248.651z" />
<glyph unicode="&#xe80b;" glyph-name="markedtop" horiz-adv-x="1022" d="M85.514 599.831l212.972 248.417 201.117-248.417zM100.98 441.922h388.874v-362.937h-388.874v362.937z" />
<glyph unicode="&#xe900;" glyph-name="zoomout" d="M153.216 485.44v231.744h221.184v65.28h-286.464v-297.024zM547.264 717.184h221.12v-231.744h65.216v297.024h-286.336zM768.384 320.832v-218.88h-221.12v-65.28h286.336v284.16zM374.4 101.952h-221.184v218.88h-65.28v-284.16h286.464z" />
<glyph unicode="&#xe901;" glyph-name="hidesidebar" d="M92.096 702.336h73.664v-508.672h-73.664v508.672zM657.28 448l-272.96 226.496v-189.568h-221.952v-73.792h221.952v-189.632z" />
<glyph unicode="&#xe902;" glyph-name="north" d="M512 843.264l-314.402-790.528 316.587 136.533 312.149-136.533-314.334 790.528zM512 233.677l-241.527-105.813 241.527 623.343v-517.53z" />
<glyph unicode="&#xe903;" glyph-name="logout" horiz-adv-x="1022" d="M654.443 647.552c0-79.068-64.097-143.165-143.165-143.165s-143.165 64.097-143.165 143.165c0 79.068 64.097 143.165 143.165 143.165s143.165-64.097 143.165-143.165zM655.827 455.643l-144.609-144.609-144.549 144.609c-106.396-53.92-189.924-163.987-225.67-302.157h740.559c-35.746 138.23-119.334 248.297-225.73 302.157z" />
<glyph unicode="&#xe904;" glyph-name="showsidebar" horiz-adv-x="1022" d="M95.503 486.936h601.064v-102.304h-601.064v102.304zM95.503 684.743h601.064v-102.304h-601.064v102.304zM95.503 289.128h601.064v-102.304h-601.064v102.304z" />
<glyph unicode="&#xe905;" glyph-name="minimieren" d="M345.664 170.752l332.992 448.256h-665.856z" />
<glyph unicode="&#xe906;" glyph-name="export" d="M323.968 257.152l213.632 240.896h-157.504v221.952h-112.192v-221.952h-157.568zM622.336 282.368h-105.536v-71.616h-385.664v71.616h-105.6v-177.216h596.16v38.592h0.64z" />
<glyph unicode="&#xe907;" glyph-name="login" horiz-adv-x="1022" d="M654.443 647.552c0-79.068-64.097-143.165-143.165-143.165s-143.165 64.097-143.165 143.165c0 79.068 64.097 143.165 143.165 143.165s143.165-64.097 143.165-143.165zM655.827 455.643l-144.609-144.609-144.549 144.609c-106.396-53.92-189.924-163.987-225.67-302.157h740.559c-35.746 138.23-119.334 248.297-225.73 302.157z" />
<glyph unicode="&#xe90a;" glyph-name="invisible" d="M474.453 314.778h75.093v-276.241h-75.093v276.241zM486.256 317.288l63.672-39.807-185.663-296.97-63.672 39.807 185.663 296.97zM537.686 317.263l185.663-296.97-63.672-39.807-185.663 296.97 63.672 39.807zM805.001 284.058h-586.001v586.069h586.035v-586.069zM280.405 345.498h463.155v463.189h-463.155v-463.189zM737.373 840.563l43.094-43.794-486.678-478.894-43.094 43.794 486.678 478.894zM512.307 398.097c-99.123 0-179.78 80.623-179.78 179.78s80.623 179.814 179.78 179.814c99.157 0 179.814-80.657 179.814-179.814s-80.657-179.78-179.814-179.78zM512.307 696.218c-65.263 0-118.34-53.111-118.34-118.374s53.077-118.34 118.34-118.34c65.263 0 118.374 53.077 118.374 118.34s-53.111 118.374-118.374 118.374z" />
<glyph unicode="&#xe90b;" glyph-name="visible" d="M474.453 314.778h75.093v-276.241h-75.093v276.241zM486.256 317.288l63.672-39.807-185.663-296.97-63.672 39.807 185.663 296.97zM537.686 317.263l185.663-296.97-63.672-39.807-185.663 296.97 63.672 39.807zM805.001 284.058h-586.001v586.069h586.035v-586.069zM280.405 345.498h463.155v463.189h-463.155v-463.189zM661.402 577.843c0-82.324-66.737-149.060-149.060-149.060s-149.060 66.737-149.060 149.060c0 82.324 66.737 149.060 149.060 149.060s149.060-66.737 149.060-149.060z" />
</font>
</defs>
</svg>
