<?xml version="1.0" encoding="utf-8"?>
<!-- Generator: Adobe Illustrator 16.0.0, SVG Export Plug-In . SVG Version: 6.00 Build 0)  -->
<!DOCTYPE svg PUBLIC "-//W3C//DTD SVG 1.1//EN" "http://www.w3.org/Graphics/SVG/1.1/DTD/svg11.dtd">
<svg version="1.1" id="Ebene_1" xmlns="http://www.w3.org/2000/svg" xmlns:xlink="http://www.w3.org/1999/xlink" x="0px" y="0px"
	 width="16.991px" height="17.016px" viewBox="0 0 16.991 17.016" enable-background="new 0 0 16.991 17.016" xml:space="preserve">
<g>
	<path d="M9.329,165.852l-0.87-1.741H5.271l-0.871,1.741H0.784v8.704h12.16v-8.704H9.329z M6.864,173.474
		c-1.803,0-3.27-1.467-3.27-3.271c0-1.803,1.467-3.27,3.27-3.27s3.271,1.467,3.271,3.27C10.136,172.007,8.667,173.474,6.864,173.474
		z"/>
</g>
<g>
	<path d="M-22.5,254.833c-4.411,0-8-3.589-8-8s3.589-8,8-8s8,3.589,8,8S-18.089,254.833-22.5,254.833z M-22.5,239.833
		c-3.86,0-7,3.141-7,7s3.14,7,7,7c3.859,0,7-3.141,7-7S-18.641,239.833-22.5,239.833z"/>
</g>
<circle fill="none" stroke="#000000" stroke-miterlimit="10" cx="224.332" cy="-100.763" r="7.5"/>
<polygon points="15.632,105.927 12.392,109.756 9.349,105.927 "/>
<polygon points="44.104,105.927 40.863,109.756 37.82,105.927 "/>
<polygon points="37.82,103.744 41.061,99.915 44.104,103.744 "/>
<polygon points="4.957,-61.69 8.485,-66.334 12.017,-61.69 "/>
<path fill="#FFFFFF" d="M57.655-22.224c2.481,0,4.5,2.018,4.5,4.5c0,2.48-2.019,4.5-4.5,4.5s-4.5-2.02-4.5-4.5
	C53.155-20.206,55.174-22.224,57.655-22.224 M57.655-23.224c-3.037,0-5.5,2.463-5.5,5.5s2.463,5.5,5.5,5.5
	c3.038,0,5.5-2.463,5.5-5.5S60.693-23.224,57.655-23.224L57.655-23.224z"/>
<g>
	<g>
		<rect x="-42" y="179.349" width="1" height="1"/>
	</g>
	<g>
		<path d="M-43.009,180.333h-1v-1h1V180.333z M-45.009,180.333h-1v-1h1V180.333z M-47.009,180.333h-1v-1h1V180.333z
			 M-49.009,180.333h-1v-1h1V180.333z"/>
	</g>
	<g>
		<rect x="-52" y="179.349" width="1" height="1"/>
	</g>
	<g>
		<path d="M-51.009,178.333h-1v-1h1V178.333z M-51.009,176.333h-1v-1h1V176.333z M-51.009,174.333h-1v-1h1V174.333z
			 M-51.009,172.333h-1v-1h1V172.333z"/>
	</g>
	<g>
		<rect x="-52" y="169.349" width="1" height="1"/>
	</g>
	<g>
		<path d="M-43.009,170.333h-1v-1h1V170.333z M-45.009,170.333h-1v-1h1V170.333z M-47.009,170.333h-1v-1h1V170.333z
			 M-49.009,170.333h-1v-1h1V170.333z"/>
	</g>
	<g>
		<rect x="-42" y="169.349" width="1" height="1"/>
	</g>
	<g>
		<path d="M-41.009,178.333h-1v-1h1V178.333z M-41.009,176.333h-1v-1h1V176.333z M-41.009,174.333h-1v-1h1V174.333z
			 M-41.009,172.333h-1v-1h1V172.333z"/>
	</g>
</g>
<rect x="-50.009" y="191.333" width="7" height="7"/>
<rect x="-23.009" y="242.333" width="1" height="9"/>
<rect x="-27.009" y="246.333" width="9" height="1"/>
<g>
	
		<rect x="60.655" y="-12.78" transform="matrix(0.7071 0.7071 -0.7071 0.7071 9.8538 -48.3496)" fill="#FFFFFF" width="5.27" height="1"/>
</g>
<path d="M-19.475,190.205l-6.903-0.077l0.155,6.826l-1.164-0.233l-0.077-7.678h7.756L-19.475,190.205z M-18.314,199.126
	l-8.761-8.765l0.931-0.932l8.762,8.765L-18.314,199.126z"/>
<path d="M-18.47-33.619l-3.5-4.082v9.368h-1.077v-9.348l-3.5,4.062v-1.434l4.103-4.729l3.975,4.601V-33.619z"/>
<g>
	<rect x="-88.715" y="-132.032" width="4.631" height="3.865"/>
	<polygon points="-76.13,-132.902 -78.28,-132.902 -78.28,-126.894 -89.889,-126.894 -89.889,-132.902 -92.692,-132.902 
		-92.692,-112.251 -73.011,-112.251 -73.011,-129.705 	"/>
</g>
<rect x="4.985" y="-58.69" width="7" height="6.533"/>
<g>
	<g>
		<circle cx="-90.805" cy="-167.17" r="2.834"/>
	</g>
	<g>
		<path d="M-72.377-161.5c0,1.567-1.271,2.832-2.834,2.832c-1.564,0-2.836-1.265-2.836-2.832c0-1.565,1.271-2.834,2.836-2.834
			C-73.649-164.334-72.377-163.065-72.377-161.5z"/>
	</g>
	<g>
		<path d="M-85.133-150.161c0,1.567-1.271,2.832-2.837,2.832c-1.563,0-2.833-1.265-2.833-2.832c0-1.565,1.27-2.834,2.833-2.834
			C-86.405-152.996-85.133-151.727-85.133-150.161z"/>
	</g>
	<g>
		<polygon points="-87.538,-149.677 -88.401,-150.648 -76.459,-161.262 -91.027,-166.56 -90.583,-167.781 -73.965,-161.739 		"/>
	</g>
</g>
<g>
	<path d="M-76.431-77.517h-12.156l-2.153-18.3h16.462L-76.431-77.517z"/>
</g>
<g>
	<polygon points="-74.135,-96.356 -90.763,-99.318 -90.441,-101.25 -73.813,-98.288 	"/>
</g>
<g>
	<path d="M119.988-234.404l-2.768-13.502l12.989,0.719l2.381,6.745L119.988-234.404z M118.461-246.836l2.25,10.977l10.638-5.097
		l-1.859-5.271L118.461-246.836z"/>
</g>
<g>
	<path d="M-83.633-188.752l-11.454-10.597l6.482-10.733l15.087,2.339l2.506,10.516L-83.633-188.752z"/>
</g>
<line fill="none" stroke="#000000" stroke-miterlimit="10" x1="123.841" y1="-262.691" x2="118.841" y2="-262.691"/>
<path d="M123.585-310.885c0-3.229-2.617-5.845-5.844-5.845c-2.51,0-4.644,1.585-5.472,3.806l-9.774-1.516l-7.004,11.599l12.42,11.49
	l13.702-9.201l-1.223-5.13C122.284-306.648,123.585-308.613,123.585-310.885z M108.03-292.876l-11.006-10.181l6.082-10.072
	l8.862,1.374c-0.042,0.285-0.071,0.574-0.071,0.871c0,3.227,2.615,5.844,5.844,5.844c0.525,0,1.033-0.076,1.52-0.207l0.992,4.164
	L108.03-292.876z M121.294-310.285h-2.9v2.9h-1.2v-2.9h-2.899v-1.2h2.899v-2.9h1.2v2.9h2.9V-310.285z"/>
<g>
	<path d="M-68.509-244.024c0-3.499-2.846-6.345-6.345-6.345c-2.968,0-5.459,2.052-6.148,4.809v0l-8.792-1.363l-6.544,10.835
		l11.713,10.835l12.963-8.704l-0.984-4.128l-0.001,0C-70.235-238.983-68.509-241.303-68.509-244.024z M-81.138-244.85
		c-0.003,0.021-0.007,0.042-0.01,0.063C-81.145-244.808-81.141-244.829-81.138-244.85z M-73.748-237.783
		c0.015-0.002,0.031-0.004,0.046-0.007C-73.717-237.787-73.733-237.786-73.748-237.783z M-74.854-238.68
		c-2.947,0-5.344-2.397-5.344-5.344c0-2.947,2.397-5.345,5.344-5.345c2.947,0,5.345,2.397,5.345,5.345
		C-69.509-241.077-71.907-238.68-74.854-238.68z"/>
	<polygon points="-71.352,-244.724 -74.152,-244.724 -74.152,-247.524 -75.552,-247.524 -75.552,-244.724 -78.352,-244.724 
		-78.352,-243.324 -75.552,-243.324 -75.552,-240.524 -74.152,-240.524 -74.152,-243.324 -71.352,-243.324 	"/>
</g>
<circle fill="#FFFFFF" stroke="#000000" stroke-miterlimit="10" cx="166.341" cy="-315.691" r="4.5"/>
<circle cx="166.341" cy="-315.691" r="4.5"/>
<line fill="none" stroke="#FFFFFF" stroke-miterlimit="10" x1="168.841" y1="-315.691" x2="163.841" y2="-315.691"/>
<g>
	<circle cx="-135.509" cy="-279.167" r="4.905"/>
	<polygon points="-132.876,-288.063 -138.109,-288.063 -135.493,-292.118 	"/>
	<polygon points="-126.613,-276.485 -126.613,-281.718 -122.558,-279.102 	"/>
	<polygon points="-144.404,-281.718 -144.404,-276.485 -148.459,-279.102 	"/>
	<polygon points="-138.125,-270.271 -132.893,-270.271 -135.509,-266.216 	"/>
</g>
<path d="M-109.008-37.667h-0.805v-33h0.805V-37.667z M-105.009-37.667h-0.852v-33h0.852V-37.667z M-115.054-59.267l2.761,2.428
	l-2.761,2.43V-59.267z M-118.006-54.409l-2.761-2.43l2.761-2.428V-54.409z"/>
<g>
	<path d="M-76.237-316.78h-16.207v-16.629l4.283-3.051h15.937v13.655L-76.237-316.78z M-91.146-318.079h13.841v-13.84h-13.841
		V-318.079z"/>
</g>
<g>
	<polygon points="-181.272,-285.748 -192.927,-274.093 -193.814,-268.352 -188.207,-269.373 -176.552,-281.027 	"/>
	
		<rect x="-178.449" y="-288.293" transform="matrix(-0.7072 0.707 -0.707 -0.7072 -504.2286 -361.0981)" width="2.209" height="6.676"/>
</g>
<path d="M-16.009-22.238c0-0.236-0.192-0.429-0.429-0.429H-28.58c-0.237,0-0.429,0.192-0.429,0.429v12.143
	c0,0.236,0.192,0.429,0.429,0.429h12.143c0.236,0,0.429-0.192,0.429-0.429V-22.238z M-26.009-15.738v-3.929h3.928L-26.009-15.738z
	 M-19.009-12.667h-3.928l3.928-3.929V-12.667z"/>
<polygon points="-23.972,-0.56 -26.3,-3.376 -28.628,-0.56 -27.104,-0.567 -27.104,5.042 -25.504,5.042 -25.504,-0.567 "/>
<polygon points="-24.399,0.731 -24.399,2.329 -23.401,2.329 -23.401,8.134 -29.199,8.134 -29.199,2.329 -28.2,2.329 -28.2,0.731 
	-30.8,0.731 -30.8,9.731 -21.801,9.731 -21.801,0.731 "/>
<g>
	<path d="M-68.509-285.024c0-3.499-2.846-6.345-6.345-6.345c-2.968,0-5.459,2.052-6.148,4.809v0l-8.792-1.363l-6.544,10.835
		l11.713,10.835l12.963-8.704l-0.984-4.128l-0.001,0C-70.235-279.983-68.509-282.303-68.509-285.024z M-81.138-285.85
		c-0.003,0.021-0.007,0.042-0.01,0.063C-81.145-285.808-81.141-285.829-81.138-285.85z M-73.748-278.783
		c0.015-0.002,0.031-0.004,0.046-0.007C-73.717-278.787-73.733-278.786-73.748-278.783z M-74.854-279.68
		c-2.947,0-5.344-2.397-5.344-5.344c0-2.947,2.397-5.345,5.344-5.345c2.947,0,5.345,2.397,5.345,5.345
		C-69.509-282.077-71.907-279.68-74.854-279.68z"/>
	<rect x="-78.352" y="-285.724" width="7" height="1.4"/>
</g>
<g>
	<path d="M11.652-14.484c-0.185,0.246-0.364,0.496-0.589,0.719c-0.223,0.225-0.473,0.404-0.719,0.588l3.554,3.554l1.307-1.307
		L11.652-14.484z"/>
</g>
<path d="M-22.5,56.882c-3.888,0-7.051,3.163-7.051,7.051s3.163,7.051,7.051,7.051s7.051-3.163,7.051-7.051
	S-18.612,56.882-22.5,56.882z M-19.84,67.771l-2.671-2.672l-2.671,2.672l-1.159-1.16l2.671-2.671l-2.671-2.67l1.16-1.16l2.671,2.67
	l2.67-2.67l1.159,1.16l-2.671,2.67l2.672,2.671L-19.84,67.771z"/>
<path d="M248.224-249.795c0,0-5.795,6.784-12.941,6.784s-12.941-6.784-12.941-6.784s5.795-6.784,12.941-6.784
	S248.224-249.795,248.224-249.795z"/>
<circle fill="#FFFFFF" cx="235.282" cy="-249.795" r="5.385"/>
<circle cx="235.282" cy="-249.795" r="1.698"/>
<path fill="none" stroke="#000000" stroke-width="3" stroke-miterlimit="10" d="M248.224-209.002c0,0-5.795,6.784-12.941,6.784
	s-12.941-6.784-12.941-6.784"/>
<g>
	<rect x="5.472" y="-115.667" fill="#1D1D1B" width="1.801" height="10.25"/>
</g>
<g>
	<rect x="1.378" y="-111.392" fill="#1D1D1B" width="9.988" height="1.7"/>
</g>
<g>
	
		<rect x="7.551" y="-40.061" transform="matrix(0.7071 -0.7071 0.7071 0.7071 27.7951 -4.6486)" fill="#1D1D1B" width="1.471" height="8.371"/>
</g>
<g>
	
		<rect x="4.208" y="-36.571" transform="matrix(0.7071 -0.7071 0.7071 0.7071 27.7954 -4.6488)" fill="#1D1D1B" width="8.157" height="1.389"/>
</g>
<g>
	
		<rect x="26.633" y="-41.476" transform="matrix(0.7071 -0.7071 0.7071 0.7071 33.3841 8.8444)" fill="#1D1D1B" width="1.471" height="11.199"/>
</g>
<g>
	
		<rect x="21.876" y="-36.571" transform="matrix(0.7071 -0.7071 0.7071 0.7071 33.3844 8.8442)" fill="#1D1D1B" width="10.985" height="1.389"/>
</g>
<g>
	<rect x="1.379" y="-89.392" fill="#1D1D1B" width="9.988" height="1.7"/>
</g>
<polygon points="-22.044,-158.568 -11.885,-149.357 -11.885,-157.062 -3.371,-157.062 -3.371,-160.072 -11.885,-160.072 
	-11.885,-167.777 "/>
<polygon points="-44.06,-89.667 -51.064,-94.869 -51.064,-84.465 "/>
<g>
	<path d="M-46.641-66.707l-5.119-8.06h10.24L-46.641-66.707z M-49.356-73.446l2.715,4.275l2.715-4.275H-49.356z"/>
</g>
<polygon points="-25.307,-68.218 -20.105,-73.955 -24.457,-73.955 -24.457,-79.066 -26.157,-79.066 -26.157,-73.955 
	-30.508,-73.955 "/>
<g>
	<rect x="3.004" y="-18.898" fill="#1D1D1B" width="6.736" height="1.147"/>
</g>
<line fill="none" stroke="#1D1D1B" stroke-width="1.8" stroke-miterlimit="10" x1="47.241" y1="-115.667" x2="47.241" y2="-105.417"/>
<line fill="none" stroke="#1D1D1B" stroke-width="1.7" stroke-miterlimit="10" x1="52.235" y1="-110.542" x2="42.247" y2="-110.542"/>
<line fill="none" stroke="#1D1D1B" stroke-width="1.7" stroke-miterlimit="10" x1="52.235" y1="-88.542" x2="42.247" y2="-88.542"/>
<g>
	<path d="M6.504-12.63c-3.14,0-5.694-2.555-5.694-5.694s2.555-5.694,5.694-5.694c3.141,0,5.695,2.555,5.695,5.694
		S9.645-12.63,6.504-12.63z M6.504-22.819c-2.479,0-4.495,2.017-4.495,4.495s2.017,4.495,4.495,4.495S11-15.846,11-18.324
		S8.982-22.819,6.504-22.819z"/>
</g>
<g>
	<path fill="#FFFFFF" d="M11.831,10.166c-0.185,0.246-0.364,0.496-0.589,0.719c-0.223,0.225-0.473,0.404-0.719,0.588l3.554,3.554
		l1.307-1.307L11.831,10.166z"/>
</g>
<g>
	<path fill="#FFFFFF" d="M6.683,12.121c-3.195,0-5.795-2.6-5.795-5.795s2.6-5.795,5.795-5.795s5.796,2.6,5.796,5.795
		S9.878,12.121,6.683,12.121z M6.683,1.932c-2.423,0-4.395,1.972-4.395,4.395s1.972,4.395,4.395,4.395
		c2.424,0,4.396-1.972,4.396-4.395S9.106,1.932,6.683,1.932z"/>
</g>
<circle fill="#1D1D1B" cx="23.844" cy="-88.225" r="1.431"/>
<circle fill="#1D1D1B" cx="27.705" cy="-88.225" r="1.43"/>
<circle fill="#1D1D1B" cx="31.566" cy="-88.225" r="1.43"/>
<path d="M-15.796,171.158l-3.87,3.098v-2.112h-8.955v8.036h8.955v-2.187l3.87,3.098V171.158z M-20.666,176.451v2.729h-6.955v-6.036
	h6.955v2.654l3.87-2.96v6.573L-20.666,176.451z"/>
</svg>
